<svg xmlns="http://www.w3.org/2000/svg" width="3.08in" height="0.8in" viewBox="0 0 222 57.67">
  <defs>
    <style>
      .a {
        fill: #1295d3;
      }
    </style>
  </defs>
  <title>Arabic Logos</title>
  <g>
    <path class="a" d="M33.77,40.1l-.66,3.76h-15c-1.31,0-1.92-.66-1.92-1.79a3.13,3.13,0,0,1,0-.61L20.07,20a20.4,20.4,0,0,0,.44-3.54c0-1.4-.39-2.32-1.53-2.8l0-.44h7.26L21.52,40.1Z"/>
    <path class="a" d="M45.06,22.07,41.21,43.86H36.61l3-16.89a13.15,13.15,0,0,0,.22-2.06,2.18,2.18,0,0,0-1.44-2.41l.09-.44ZM46.2,16.3a3,3,0,0,1-3,2.71,2.41,2.41,0,0,1-2.41-2.45V16.3a3,3,0,0,1,2.89-2.67,2.43,2.43,0,0,1,2.49,2.45Z"/>
    <path class="a" d="M68.95,32.71c-.88,5.73-5.38,11.64-14.09,11.64a17,17,0,0,1-6.3-1.09,2,2,0,0,1-1.27-2,3.76,3.76,0,0,1,0-.66l4-22.49a11.74,11.74,0,0,0,.22-2c0-1.27-.39-2.1-1.49-2.45l.09-.48H56.7l-2.45,14L51.93,40.14a9,9,0,0,0,3.68.57h0c4.51,0,7.74-3.19,8.53-7.79l0-.26a10.9,10.9,0,0,0,.22-2c0-3.19-1.62-5.43-5-5.43a6.75,6.75,0,0,0-3,.79,2.15,2.15,0,0,1-.57-1.53v-.26a2.46,2.46,0,0,1,1.36-1.88,7.8,7.8,0,0,1,3.94-.87c5.16,0,8,3.54,8,8.75A16.71,16.71,0,0,1,68.95,32.71Z"/>
    <path class="a" d="M86.32,25.84c-.61,0-1.14-.09-1.57-.09a4,4,0,0,0-.7,0c-2.58.26-5.16,2.58-6.13,8L76.13,43.86H71.53l3-16.89a12.7,12.7,0,0,0,.22-2.06,2.13,2.13,0,0,0-1.49-2.36l.09-.48H79.8l-.7,4.24c2.23-3.63,4.81-4.77,7.13-4.77a4.86,4.86,0,0,1,3.33,1.18C89.38,25.4,87.72,25.84,86.32,25.84Z"/>
    <path class="a" d="M109.07,31a2.68,2.68,0,0,1-2.76,2.71H94.72c0-.22,0-.39,0-.57a2.4,2.4,0,0,1,2.58-2.63h7.48a8.07,8.07,0,0,0,0-1c0-2.8-1.4-4.38-4.38-4.38s-6.26,2.32-7.09,7a13.75,13.75,0,0,0-.22,2.23c0,4.11,2.41,6.39,6.65,6.39a10.69,10.69,0,0,0,5.91-1.62,2,2,0,0,1,.57,1.44,3,3,0,0,1-1.36,2.36c-1.53,1.05-3.41,1.53-6.34,1.53-6,0-10.15-3.85-10.15-9.63A13.91,13.91,0,0,1,88.51,33a12.89,12.89,0,0,1,12.6-11.46c4.81,0,8,2.89,8,8.05C109.12,30,109.12,30.47,109.07,31Z"/>
    <path class="a" d="M141,13.23,123.16,43.86h-2.23l-6.34-23.8c-.92-3.33-1.66-5.6-3.28-6.39l.09-.44H118l3.72,14.66c.74,2.93,1.49,5.86,1.75,7.79.83-1.84,2.54-4.9,4.24-7.79l7.35-12.73a3.65,3.65,0,0,1,3.46-1.92Z"/>
    <path class="a" d="M147.93,22.07l-3.85,21.79h-4.59l3-16.89a13.15,13.15,0,0,0,.22-2.06,2.18,2.18,0,0,0-1.44-2.41l.09-.44Zm1.14-5.78a3,3,0,0,1-3,2.71,2.41,2.41,0,0,1-2.41-2.45V16.3a3,3,0,0,1,2.89-2.67,2.43,2.43,0,0,1,2.49,2.45Z"/>
    <path class="a" d="M170.77,31A2.68,2.68,0,0,1,168,33.67h-11.6c0-.22,0-.39,0-.57A2.4,2.4,0,0,1,159,30.47h7.48a8.07,8.07,0,0,0,0-1c0-2.8-1.4-4.38-4.38-4.38s-6.26,2.32-7.09,7a13.75,13.75,0,0,0-.22,2.23c0,4.11,2.41,6.39,6.65,6.39a10.69,10.69,0,0,0,5.91-1.62,2,2,0,0,1,.57,1.44,3,3,0,0,1-1.36,2.36c-1.53,1.05-3.41,1.53-6.34,1.53-6,0-10.15-3.85-10.15-9.63a13.91,13.91,0,0,1,.13-1.84,12.89,12.89,0,0,1,12.6-11.46c4.81,0,8,2.89,8,8.05C170.82,30,170.82,30.47,170.77,31Z"/>
    <path class="a" d="M193.79,44.3H192l-3.11-12.21a13.87,13.87,0,0,1-.52-2.8c-.31.74-.88,1.75-1.44,2.8L180.31,44.3h-1.88l-4.07-17.5c-.48-2-1.05-3.85-2.23-4.24l.09-.48h6l2.41,11.64a14.12,14.12,0,0,1,.39,2.49c.61-1.23,1.05-2,1.31-2.49l6.56-11.95h2l2.93,11.95a14.09,14.09,0,0,1,.39,2.49c.57-1.23,1-1.88,1.27-2.49l4.94-9.28c1-1.84,2.28-2.54,3.46-2.54a3,3,0,0,1,1.88.66Z"/>
  </g>
</svg>
